<svg xmlns="http://www.w3.org/2000/svg" viewBox="0 0 64 64"><g id="_16-Alert" data-name="16-Alert"><rect x="1" y="51" width="58" height="4" style="fill:#d6e0eb"/><polygon points="1 55 1 51 59 51 59 53 6 53 6 54 59 54 59 55 1 55" style="fill:#8394b2"/><rect x="1" y="15" width="58" height="36" style="fill:#fbfbfb"/><path d="M1,15V51H59V45H34C19.088,45,7,33.912,7,19V15Z" style="fill:#d6e0eb"/><path d="M1,4V15H59V4Zm12,7H5V7h8Zm14,0H19V7h8Zm14,0H33V7h8Zm14,0H47V7h8Z" style="fill:#e63b47"/><path d="M8,1h2a1,1,0,0,1,1,1V8a0,0,0,0,1,0,0H7A0,0,0,0,1,7,8V2A1,1,0,0,1,8,1Z" style="fill:#d6e0eb"/><path d="M10,6H9A1,1,0,0,1,8,5V2A1,1,0,0,1,9,1H8A1,1,0,0,0,7,2V8h4V5A1,1,0,0,1,10,6Z" style="fill:#a8b7d4"/><path d="M22,1h2a1,1,0,0,1,1,1V8a0,0,0,0,1,0,0H21a0,0,0,0,1,0,0V2A1,1,0,0,1,22,1Z" style="fill:#d6e0eb"/><path d="M24,6H23a1,1,0,0,1-1-1V2a1,1,0,0,1,1-1H22a1,1,0,0,0-1,1V8h4V5A1,1,0,0,1,24,6Z" style="fill:#a8b7d4"/><path d="M36,1h2a1,1,0,0,1,1,1V8a0,0,0,0,1,0,0H35a0,0,0,0,1,0,0V2A1,1,0,0,1,36,1Z" style="fill:#d6e0eb"/><path d="M38,6H37a1,1,0,0,1-1-1V2a1,1,0,0,1,1-1H36a1,1,0,0,0-1,1V8h4V5A1,1,0,0,1,38,6Z" style="fill:#a8b7d4"/><path d="M50,1h2a1,1,0,0,1,1,1V8a0,0,0,0,1,0,0H49a0,0,0,0,1,0,0V2A1,1,0,0,1,50,1Z" style="fill:#d6e0eb"/><path d="M52,6H51a1,1,0,0,1-1-1V2a1,1,0,0,1,1-1H50a1,1,0,0,0-1,1V8h4V5A1,1,0,0,1,52,6Z" style="fill:#a8b7d4"/><rect x="9" y="19" width="6" height="6" style="fill:#a8b7d4"/><rect x="21" y="19" width="6" height="6" style="fill:#a8b7d4"/><rect x="33" y="19" width="6" height="6" style="fill:#a8b7d4"/><rect x="45" y="19" width="6" height="6" style="fill:#a8b7d4"/><rect x="9" y="30" width="6" height="6" style="fill:#a8b7d4"/><rect x="21" y="30" width="6" height="6" style="fill:#a8b7d4"/><rect x="33" y="30" width="6" height="6" style="fill:#a8b7d4"/><rect x="21" y="41" width="6" height="6" style="fill:#a8b7d4"/><rect x="9" y="40" width="6" height="6" style="fill:#8394b2"/><rect x="45" y="30" width="6" height="6" style="fill:#a8b7d4"/><path d="M9,36h4.377a25.157,25.157,0,0,1-3.954-6H9Z" style="fill:#8394b2"/><path d="M27,47V44.149A27.6,27.6,0,0,1,21,41.9V47Z" style="fill:#8394b2"/><rect x="9" y="40" width="6" height="6" style="fill:#8394b2"/><rect x="33" y="41" width="6" height="6" style="fill:#a8b7d4"/><path d="M39,47V45H34c-.335,0-.668-.012-1-.023V47Z" style="fill:#8394b2"/><circle cx="49" cy="49" r="14" style="fill:#e63b47"/><path d="M39,43a13.971,13.971,0,0,1,.748-4.488,13.991,13.991,0,1,0,22.5,14.976A13.984,13.984,0,0,1,39,43Z" style="fill:#b32e37"/><path d="M46,55h6a3,3,0,0,1-6,0Z" style="fill:#e3c231"/><path d="M54.96,51.24a2.028,2.028,0,0,1,.94,2.41A2.048,2.048,0,0,1,53.92,55H44.08a2.048,2.048,0,0,1-1.98-1.35,2.028,2.028,0,0,1,.94-2.41,1.915,1.915,0,0,0,.96-1.7V46a5.008,5.008,0,0,1,6.03-4.9A5.128,5.128,0,0,1,54,46.19v3.35A1.915,1.915,0,0,0,54.96,51.24Z" style="fill:#e9dd55"/><path d="M49,56h2.817A2.986,2.986,0,0,0,52,55H46a2.978,2.978,0,0,0,1.125,2.326A1.994,1.994,0,0,1,49,56Z" style="fill:#e39b1e"/><path d="M54,53H46a1,1,0,0,1,0-2,1,1,0,0,0,1-1V44a2.99,2.99,0,0,1,2.6-2.96A5,5,0,0,0,44,46v3.54a1.915,1.915,0,0,1-.96,1.7,2.028,2.028,0,0,0-.94,2.41A2.048,2.048,0,0,0,44.08,55h9.84a2.048,2.048,0,0,0,1.98-1.35A2.026,2.026,0,0,0,55.724,52,1.99,1.99,0,0,1,54,53Z" style="fill:#e3c231"/><path d="M52,47a1,1,0,0,1-1-1,2,2,0,0,0-2-2,1,1,0,0,1,0-2,4,4,0,0,1,4,4A1,1,0,0,1,52,47Z" style="fill:#fff"/><circle cx="52" cy="49" r="1" style="fill:#fff"/><path d="M2,44H0V55a1,1,0,0,0,1,1H32V54H2V52H32V50H2Z"/><rect x="58" y="33" width="2" height="2"/><path d="M2,16H58V31h2V4a1,1,0,0,0-1-1H56V5h2v9H2V5H4V3H1A1,1,0,0,0,0,4V42H2Z"/><path d="M4,11a1,1,0,0,0,1,1h8a1,1,0,0,0,1-1V7a1,1,0,0,0-1-1H12V5h8V6H19a1,1,0,0,0-1,1v4a1,1,0,0,0,1,1h8a1,1,0,0,0,1-1V7a1,1,0,0,0-1-1H26V5h8V6H33a1,1,0,0,0-1,1v4a1,1,0,0,0,1,1h8a1,1,0,0,0,1-1V7a1,1,0,0,0-1-1H40V5h8V6H47a1,1,0,0,0-1,1v4a1,1,0,0,0,1,1h8a1,1,0,0,0,1-1V7a1,1,0,0,0-1-1H54V2a2,2,0,0,0-2-2H50a2,2,0,0,0-2,2V3H40V2a2,2,0,0,0-2-2H36a2,2,0,0,0-2,2V3H26V2a2,2,0,0,0-2-2H22a2,2,0,0,0-2,2V3H12V2a2,2,0,0,0-2-2H8A2,2,0,0,0,6,2V6H5A1,1,0,0,0,4,7ZM53,9a1,1,0,0,0,1-1v2H48V8a1,1,0,0,0,1,1ZM50,2h2V7H50ZM39,9a1,1,0,0,0,1-1v2H34V8a1,1,0,0,0,1,1ZM36,2h2V7H36ZM25,9a1,1,0,0,0,1-1v2H20V8a1,1,0,0,0,1,1ZM22,2h2V7H22ZM8,2h2V7H8ZM6,8A1,1,0,0,0,7,9h4a1,1,0,0,0,1-1v2H6Z"/><path d="M16,19a1,1,0,0,0-1-1H9a1,1,0,0,0-1,1v6a1,1,0,0,0,1,1h6a1,1,0,0,0,1-1Zm-2,5H10V20h4Z"/><path d="M28,19a1,1,0,0,0-1-1H21a1,1,0,0,0-1,1v6a1,1,0,0,0,1,1h6a1,1,0,0,0,1-1Zm-2,5H22V20h4Z"/><path d="M33,18a1,1,0,0,0-1,1v6a1,1,0,0,0,1,1h6a1,1,0,0,0,1-1V19a1,1,0,0,0-1-1Zm5,6H34V20h4Z"/><path d="M52,19a1,1,0,0,0-1-1H45a1,1,0,0,0-1,1v6a1,1,0,0,0,1,1h6a1,1,0,0,0,1-1Zm-2,5H46V20h4Z"/><path d="M16,30a1,1,0,0,0-1-1H9a1,1,0,0,0-1,1v6a1,1,0,0,0,1,1h6a1,1,0,0,0,1-1Zm-2,5H10V31h4Z"/><path d="M28,30a1,1,0,0,0-1-1H21a1,1,0,0,0-1,1v6a1,1,0,0,0,1,1h6a1,1,0,0,0,1-1Zm-2,5H22V31h4Z"/><path d="M40,36V30a1,1,0,0,0-1-1H33a1,1,0,0,0-1,1v6a1,1,0,0,0,1,1h6A1,1,0,0,0,40,36Zm-2-1H34V31h4Z"/><path d="M52,33V30a1,1,0,0,0-1-1H45a1,1,0,0,0-1,1v3h2V31h4v2Z"/><path d="M15,40H9a1,1,0,0,0-1,1v6a1,1,0,0,0,1,1h6a1,1,0,0,0,1-1V41A1,1,0,0,0,15,40Zm-1,6H10V42h4Z"/><path d="M27,40H21a1,1,0,0,0-1,1v6a1,1,0,0,0,1,1h6a1,1,0,0,0,1-1V41A1,1,0,0,0,27,40Zm-1,6H22V42h4Z"/><path d="M49,34A15,15,0,1,0,64,49,15.017,15.017,0,0,0,49,34Zm0,28A13,13,0,1,1,62,49,13.015,13.015,0,0,1,49,62Z"/><path d="M55.438,50.366A.932.932,0,0,1,55,49.541V46.188a6.107,6.107,0,0,0-4.77-6.065A6.005,6.005,0,0,0,43,46v3.541a.933.933,0,0,1-.439.826,3.005,3.005,0,0,0-1.412,3.587A3.06,3.06,0,0,0,44.084,56h1.058a3.981,3.981,0,0,0,7.716,0h1.058a3.06,3.06,0,0,0,2.935-2.047A3.005,3.005,0,0,0,55.438,50.366ZM49,57a1.993,1.993,0,0,1-1.722-1h3.444A1.993,1.993,0,0,1,49,57Zm5.944-3.651A1.06,1.06,0,0,1,53.916,54H44.084a1.06,1.06,0,0,1-1.028-.65,1.011,1.011,0,0,1,.465-1.228A2.918,2.918,0,0,0,45,49.541V46a3.988,3.988,0,0,1,1.467-3.1A3.943,3.943,0,0,1,48.992,42a4.3,4.3,0,0,1,.846.085A4.1,4.1,0,0,1,53,46.188v3.353a2.915,2.915,0,0,0,1.479,2.58A1.012,1.012,0,0,1,54.944,53.349Z"/></g></svg>